<svg width="24" height="24" viewBox="0 0 24 24" fill="none" xmlns="http://www.w3.org/2000/svg">
<path fillRule="evenodd" clipRule="evenodd" d="M21.2305 15.2312H20.9998C20.1229 15.2312 19.3844 14.4928 19.3844 13.6158V8.30802C19.3844 4.10793 15.8767 0.738638 11.6305 0.923257C7.66131 1.10788 4.61516 4.52333 4.61516 8.53879V13.662C4.61516 14.5389 3.8767 15.2312 2.99977 15.2312H2.76901C1.75362 15.2312 0.922852 16.1082 0.922852 17.1236V17.8159C0.922852 18.139 1.24593 18.4621 1.61516 18.4621H22.3844C22.7536 18.4621 23.0767 18.139 23.0767 17.7697V17.0774C23.0767 16.062 22.2459 15.2312 21.2305 15.2312ZM14.261 20.3078H9.73797C9.46104 20.3078 9.23027 20.5847 9.27643 20.8617C9.5072 22.154 10.661 23.0771 11.9995 23.0771C13.338 23.0771 14.4918 22.1078 14.7226 20.8617C14.7687 20.5847 14.538 20.3078 14.261 20.3078Z" fill="#747474"/>
</svg>
