<svg width="12" height="12" viewBox="0 0 12 12" fill="none" xmlns="http://www.w3.org/2000/svg">
<path fillRule="evenodd" clipRule="evenodd" d="M2.21561 7.15392C2.03099 7.33854 2.03099 7.59238 2.21561 7.777L5.67715 11.1693C5.86176 11.3539 6.13869 11.3539 6.3233 11.1693L9.80792 7.777C9.99253 7.59238 9.99253 7.33854 9.80792 7.15392L9.16176 6.53084C8.97715 6.34623 8.70023 6.34623 8.51561 6.53084L7.43099 7.59238C7.24638 7.777 6.9233 7.66161 6.9233 7.38469V1.15392C6.9233 0.923152 6.71561 0.692383 6.46176 0.692383H5.53869C5.28484 0.692383 5.07715 0.946229 5.07715 1.15392V7.38469C5.07715 7.66161 4.75407 7.777 4.56946 7.59238L3.48484 6.53084C3.30023 6.34623 3.0233 6.34623 2.83869 6.53084L2.21561 7.15392Z" fill="#747474"/>
</svg>
