<svg width="32" height="32" viewBox="0 0 32 32" fill="none" xmlns="http://www.w3.org/2000/svg">
<rect width="32" height="32" rx="16" fill="#06A59A"/>
<path fillRule="evenodd" clipRule="evenodd" d="M23.3845 21.2307V21.9076C23.3845 22.7076 22.7075 23.3845 21.9075 23.3845H10.0922C9.29216 23.3845 8.61523 22.7076 8.61523 21.9076V21.2307C8.61523 19.446 10.7075 18.3384 12.6768 17.4768L12.8614 17.3845C13.0152 17.323 13.1691 17.323 13.3229 17.4153C14.1229 17.9384 15.0152 18.2153 15.9691 18.2153C16.9229 18.2153 17.846 17.9076 18.6152 17.4153C18.7691 17.323 18.9229 17.323 19.0768 17.3845L19.2614 17.4768C21.2922 18.3384 23.3845 19.4153 23.3845 21.2307ZM15.9999 8.61523C18.0306 8.61523 19.6614 10.4306 19.6614 12.6768C19.6614 14.9229 18.0306 16.7383 15.9999 16.7383C13.9691 16.7383 12.3383 14.9229 12.3383 12.6768C12.3383 10.4306 13.9691 8.61523 15.9999 8.61523Z" fill="white"/>
</svg>
