<svg width="41" height="24" viewBox="0 0 41 24" fill="none" xmlns="http://www.w3.org/2000/svg">
<path d="M37 23.5H23.5V0.5H37C38.933 0.5 40.5 2.067 40.5 4V20C40.5 21.933 38.933 23.5 37 23.5Z" fill="white" stroke="#747474"/>
<path d="M0.5 4C0.5 2.067 2.067 0.5 4 0.5H23.5V23.5H4C2.067 23.5 0.5 21.933 0.5 20V4Z" fill="white" stroke="#747474"/>
<path fillRule="evenodd" clipRule="evenodd" d="M27.9154 10.2305H36.0846C36.3154 10.2305 36.4769 10.5305 36.2923 10.7382L32.3 15.6305C32.1615 15.8151 31.8615 15.8151 31.7231 15.6305L27.6846 10.7382C27.5231 10.5305 27.6615 10.2305 27.9154 10.2305Z" fill="#747474"/>
<path fillRule="evenodd" clipRule="evenodd" d="M12.4308 4.95411L13.8462 9.56949C13.9077 9.75411 14.0924 9.84642 14.277 9.84642H18.8924C19.3539 9.84642 19.5385 10.4618 19.1693 10.7387L15.4154 13.508C15.2616 13.631 15.2 13.8464 15.2616 14.031L17.0462 18.7695C17.1693 19.2003 16.7077 19.5695 16.3385 19.2926L12.3077 16.2772C12.1539 16.1541 11.9385 16.1541 11.7539 16.2772L7.69236 19.2926C7.32313 19.5695 6.83082 19.2003 6.98467 18.7695L8.70774 14.031C8.76928 13.8464 8.70774 13.631 8.5539 13.508L4.80005 10.7387C4.43082 10.4618 4.6462 9.84642 5.07697 9.84642H9.69236C9.90774 9.84642 10.0616 9.78488 10.1231 9.56949L11.5693 4.92334C11.6924 4.49257 12.3077 4.52334 12.4308 4.95411Z" fill="#747474"/>
</svg>
