<svg width="24" height="24" viewBox="0 0 24 24" fill="none" xmlns="http://www.w3.org/2000/svg">
<path fillRule="evenodd" clipRule="evenodd" d="M6 2C3.79086 2 2 3.79086 2 6V18C2 20.2091 3.79086 22 6 22H18C20.2091 22 22 20.2091 22 18V6C22 3.79086 20.2091 2 18 2H6ZM19 12.4773C19 12.7407 18.7862 12.9545 18.5227 12.9545H13.2727C13.0971 12.9545 12.9545 13.0971 12.9545 13.2727V18.5227C12.9545 18.7862 12.7407 19 12.4773 19H11.5227C11.2593 19 11.0455 18.7862 11.0455 18.5227V13.2727C11.0455 13.0971 10.9029 12.9545 10.7273 12.9545H5.47727C5.21382 12.9545 5 12.7407 5 12.4773V11.5227C5 11.2602 5.21477 11.0455 5.47727 11.0455H10.7273C10.9029 11.0455 11.0455 10.9029 11.0455 10.7273V5.47727C11.0455 5.21477 11.2602 5 11.5227 5H12.4773C12.7407 5 12.9545 5.21382 12.9545 5.47727V10.7273C12.9545 10.9029 13.0971 11.0455 13.2727 11.0455H18.5227C18.7852 11.0455 19 11.2602 19 11.5227V12.4773Z" fill="#747474"/>
</svg>
