<svg width="24" height="24" viewBox="0 0 24 24" fill="none" xmlns="http://www.w3.org/2000/svg">
<path fillRule="evenodd" clipRule="evenodd" d="M13.1078 17.5386H10.8001C10.4309 17.5386 10.1539 17.2616 10.1539 16.8924V16.2001C10.1539 14.2616 11.4001 12.5078 13.2462 11.8616C13.8001 11.677 14.3078 11.3539 14.7232 10.8924C17.0309 8.12318 14.9078 4.80011 12.1385 4.7078C11.1232 4.66165 10.1539 5.03088 9.41547 5.72319C8.81547 6.27703 8.44624 6.96934 8.35393 7.75395C8.30778 8.03088 8.03085 8.26164 7.66162 8.26164H5.35393C4.93855 8.26164 4.61547 7.93857 4.66162 7.52318C4.84624 5.76934 5.63085 4.20011 6.87701 2.95396C8.35393 1.56935 10.2462 0.830886 12.277 0.87704C16.1078 1.0155 19.2462 4.15396 19.3847 7.98472C19.5232 11.2155 17.5385 14.1232 14.5385 15.2309C14.1232 15.4155 13.8462 15.7386 13.8462 16.1539V16.8462C13.8462 17.2616 13.477 17.5386 13.1078 17.5386ZM13.8464 22.3847C13.8464 22.754 13.5233 23.077 13.1541 23.077H10.8464C10.4772 23.077 10.1541 22.754 10.1541 22.3847V20.077C10.1541 19.7078 10.4772 19.3847 10.8464 19.3847H13.1541C13.5233 19.3847 13.8464 19.7078 13.8464 20.077V22.3847Z" fill="#747474"/>
</svg>
