<svg width="16" height="16" viewBox="0 0 16 16" fill="none" xmlns="http://www.w3.org/2000/svg">
<path fillRule="evenodd" clipRule="evenodd" d="M15.2649 13.9304L11.1429 9.8403C11.9734 8.67171 12.4041 7.1956 12.1888 5.62723C11.8196 2.98252 9.66632 0.891363 6.99006 0.645344C3.36019 0.276315 0.284031 3.35155 0.65317 7.01109C0.899263 9.65579 2.99105 11.8392 5.63655 12.2082C7.20539 12.4235 8.68195 11.993 9.85089 11.1627L13.9422 15.2527C14.1268 15.4372 14.4036 15.4372 14.5882 15.2527L15.2342 14.6069C15.4187 14.4224 15.4187 14.1149 15.2649 13.9304ZM2.46809 6.4271C2.46809 4.24368 4.25227 2.46004 6.43634 2.46004C8.62042 2.46004 10.4046 4.24368 10.4046 6.4271C10.4046 8.61052 8.62042 10.3942 6.43634 10.3942C4.25227 10.3942 2.46809 8.64127 2.46809 6.4271Z" fill="#349989"/>
</svg>
