<svg width="24" height="24" viewBox="0 0 24 24" fill="none" xmlns="http://www.w3.org/2000/svg">
<path fillRule="evenodd" clipRule="evenodd" d="M21.6001 14.9536L19.8924 13.5229C19.9847 13.0152 20.0308 12.4613 20.0308 11.9536C20.0308 11.4459 19.9847 10.8921 19.8924 10.3844L21.6001 8.95362C22.1539 8.49208 22.3385 7.66131 21.9693 7.01516L21.2308 5.6767C20.9539 5.21516 20.4462 4.93824 19.8924 4.93824C19.7077 4.93824 19.5231 4.98439 19.3847 5.03054L17.3077 5.81516C16.477 5.0767 15.5539 4.56901 14.6308 4.24593L14.2616 2.0767C14.1231 1.33824 13.477 0.922852 12.7385 0.922852H11.2616C10.5231 0.922852 9.87698 1.33824 9.73851 2.0767L9.36928 4.19977C8.3539 4.52285 7.47698 5.0767 6.64621 5.76901L4.61544 4.98439C4.43082 4.93824 4.29236 4.89208 4.10775 4.89208C3.5539 4.89208 3.04621 5.169 2.76928 5.63054L2.03082 6.92285C1.66159 7.56901 1.80005 8.39977 2.40005 8.86131L4.10775 10.2921C4.01544 10.7998 3.96928 11.3536 3.96928 11.8613C3.96928 12.4152 4.01544 12.9229 4.10775 13.4305L2.40005 14.8613C1.84621 15.3229 1.66159 16.1536 2.03082 16.7998L2.76928 18.1844C3.04621 18.6459 3.5539 18.9228 4.10775 18.9228C4.29236 18.9228 4.47698 18.8767 4.61544 18.8305L6.69236 18.0459C7.52313 18.7844 8.44621 19.2921 9.36928 19.6152L9.73851 21.8305C9.87698 22.569 10.477 23.0767 11.2616 23.0767H12.7385C13.477 23.0767 14.1231 22.5229 14.2616 21.7844L14.6308 19.569C15.6924 19.1998 16.6154 18.6459 17.4462 17.8613L19.3847 18.6459C19.5693 18.6921 19.7539 18.7382 19.9385 18.7382C20.4924 18.7382 21.0001 18.4613 21.277 17.9998L21.9693 16.7998C22.3385 16.2459 22.1539 15.4152 21.6001 14.9536ZM12.0459 17.1234C9.2767 17.1234 7.01517 14.8619 7.01517 12.0465C7.01517 9.23113 9.23055 6.96959 12.0459 6.96959C14.8613 6.96959 17.0767 9.23113 17.0767 12.0465C17.0767 14.8619 14.8152 17.1234 12.0459 17.1234ZM13.3844 8.30706H11.2613C10.9383 8.30706 10.6613 8.49168 10.569 8.7686L9.27673 12.0917C9.18442 12.3224 9.36904 12.5994 9.64596 12.5994H11.8152L11.0306 15.3686C10.9383 15.6455 11.2613 15.784 11.446 15.5994L14.7229 11.7686C14.9536 11.5378 14.769 11.1686 14.446 11.1686H12.8306L14.2613 8.90706C14.3998 8.67629 14.2152 8.35321 13.9383 8.35321H13.3844V8.30706Z" fill="#747474"/>
</svg>
